#define woodstock_x_width 84
#define woodstock_x_height 48
static unsigned char woodstock_x_bits[] = {
   0x00, 0x00, 0x00, 0x00, 0x00, 0x00, 0x00, 0x00, 0x00, 0x00, 0x00, 0x00,
   0x00, 0x00, 0x00, 0x00, 0x00, 0x00, 0x00, 0x00, 0x00, 0x00, 0x00, 0x00,
   0x00, 0x00, 0x00, 0x00, 0x00, 0x00, 0x00, 0x00, 0x00, 0x00, 0x00, 0x00,
   0x00, 0x02, 0x00, 0x00, 0x00, 0x00, 0x00, 0x00, 0x00, 0x00, 0x00, 0x00,
   0x00, 0x00, 0x00, 0x00, 0x00, 0x00, 0x00, 0x00, 0x00, 0x04, 0x00, 0x01,
   0x00, 0x00, 0x00, 0x00, 0x00, 0x00, 0x00, 0x00, 0x00, 0x00, 0x00, 0x28,
   0x00, 0x00, 0x00, 0x00, 0x00, 0x00, 0x00, 0x04, 0x00, 0x01, 0x1e, 0x00,
   0x00, 0x00, 0x00, 0x00, 0x00, 0x00, 0x0c, 0x00, 0x00, 0x0e, 0x00, 0x00,
   0x00, 0x00, 0x00, 0x00, 0x00, 0x18, 0x00, 0x00, 0x0e, 0x00, 0x00, 0x00,
   0x00, 0x00, 0x00, 0x00, 0x20, 0x00, 0x00, 0x0e, 0x00, 0x00, 0x00, 0x00,
   0x00, 0x00, 0x00, 0xa0, 0x00, 0x00, 0x78, 0x00, 0x00, 0x00, 0x00, 0x00,
   0x00, 0x00, 0x00, 0x01, 0x00, 0xa0, 0x02, 0x00, 0x00, 0x00, 0x00, 0x00,
   0x00, 0x00, 0x02, 0x00, 0x00, 0x94, 0x0a, 0x00, 0x00, 0x00, 0x00, 0x00,
   0x00, 0x00, 0x00, 0x00, 0x00, 0xb4, 0x00, 0x00, 0x00, 0x00, 0x40, 0x81,
   0x00, 0x00, 0x08, 0x00, 0x80, 0x02, 0x00, 0x00, 0x00, 0x40, 0x15, 0x00,
   0x00, 0x1c, 0x00, 0x00, 0x06, 0x00, 0x00, 0x00, 0x08, 0x00, 0x00, 0x00,
   0x10, 0x00, 0x00, 0x0c, 0x00, 0x00, 0x00, 0x00, 0x00, 0x00, 0x00, 0x00,
   0x00, 0x00, 0x06, 0x00, 0x00, 0x00, 0x0e, 0x00, 0x00, 0x00, 0x00, 0x00,
   0x00, 0x0e, 0x00, 0x00, 0x00, 0x14, 0x00, 0x00, 0x00, 0x00, 0x00, 0x00,
   0x0b, 0x00, 0x00, 0x00, 0x00, 0x00, 0x00, 0x00, 0x00, 0x00, 0xc0, 0x03,
   0x00, 0x00, 0x00, 0x00, 0xc0, 0x00, 0x00, 0x00, 0x80, 0x76, 0x00, 0x00,
   0x00, 0x00, 0x00, 0x30, 0x00, 0x00, 0x00, 0xf0, 0x5f, 0x00, 0x00, 0x00,
   0x00, 0x00, 0x2c, 0x00, 0x00, 0x00, 0xfc, 0x03, 0x00, 0x00, 0x00, 0x00,
   0x00, 0x05, 0x00, 0x00, 0x00, 0x7f, 0x00, 0x00, 0x00, 0x00, 0x00, 0x00,
   0x02, 0x60, 0x5b, 0x00, 0x1f, 0x00, 0x00, 0x00, 0x00, 0x00, 0x00, 0x00,
   0x54, 0xeb, 0x01, 0x1f, 0x00, 0x00, 0x00, 0x00, 0x00, 0x00, 0x00, 0x00,
   0x80, 0x07, 0x07, 0x00, 0x00, 0x00, 0x00, 0x00, 0x00, 0x00, 0x00, 0x00,
   0x06, 0x04, 0x00, 0x00, 0x00, 0x00, 0x00, 0x00, 0x00, 0x00, 0x00, 0x06,
   0x04, 0x00, 0x00, 0x00, 0x00, 0x00, 0x00, 0x00, 0x00, 0x00, 0x06, 0x0c,
   0x00, 0x00, 0x00, 0x00, 0x00, 0x00, 0x00, 0x00, 0x00, 0x00, 0x28, 0x00,
   0x00, 0x00, 0x00, 0x00, 0x00, 0x00, 0x00, 0x00, 0x03, 0x60, 0x00, 0x00,
   0x00, 0x00, 0x00, 0x00, 0x00, 0x00, 0x80, 0x00, 0x60, 0x00, 0x00, 0x00,
   0x00, 0x00, 0x00, 0x00, 0x00, 0x80, 0x00, 0xe2, 0x00, 0x00, 0x00, 0x00,
   0x00, 0x00, 0x30, 0x00, 0x60, 0x10, 0x20, 0x00, 0x00, 0x00, 0x00, 0x00,
   0x00, 0x08, 0x00, 0xf5, 0x1f, 0x30, 0x00, 0x00, 0x00, 0x00, 0x00, 0x00,
   0x04, 0x00, 0xf8, 0x7f, 0x21, 0x00, 0x00, 0x00, 0x00, 0x00, 0x00, 0x05,
   0x00, 0x1a, 0x7e, 0x28, 0x00, 0x00, 0x00, 0x00, 0x00, 0x00, 0x02, 0xd0,
   0x06, 0xc2, 0x7f, 0x29, 0x00, 0x00, 0x00, 0x00, 0x00, 0x02, 0xb4, 0x00,
   0xc2, 0x3f, 0xa0, 0x00, 0x00, 0x00, 0x00, 0x00, 0xdf, 0x0b, 0x00, 0x87,
   0x5b, 0x01, 0x00, 0x00, 0x00, 0x00, 0x00, 0x58, 0x00, 0x57, 0x04, 0x00,
   0x14, 0x00, 0x00, 0x00, 0x00, 0x00, 0x00, 0x80, 0x0b, 0x01, 0x00, 0x3f,
   0x00, 0x00, 0x00, 0x00, 0x00, 0x00, 0x00, 0xd5, 0xde, 0xb6, 0x0a, 0x00,
   0x00, 0x00, 0x00, 0x00, 0x00, 0x00, 0xa0, 0x6a, 0x6d, 0x00, 0x00, 0x00,
   0x00, 0x00, 0x00, 0x00, 0x00, 0x00, 0x00, 0x00, 0x00, 0x00, 0x00, 0x00 };
