#define woodstock_width 48
#define woodstock_height 48
static unsigned char woodstock_bits[] = {
   0x00, 0x00, 0x00, 0x00, 0x00, 0x00, 0x00, 0x00, 0x00, 0x00, 0x00, 0x00,
   0x00, 0x00, 0x08, 0x00, 0x00, 0x00, 0x00, 0x00, 0x08, 0x00, 0x00, 0x00,
   0x00, 0x04, 0x04, 0x00, 0x00, 0x00, 0x00, 0x04, 0x04, 0x04, 0x00, 0x00,
   0x00, 0x04, 0x04, 0x03, 0x00, 0x00, 0x00, 0x04, 0x84, 0x03, 0x00, 0x00,
   0x00, 0x0c, 0x84, 0x03, 0x00, 0x00, 0x00, 0x0c, 0x80, 0x01, 0x00, 0x00,
   0x00, 0x18, 0x80, 0x03, 0x00, 0x00, 0x00, 0x30, 0x00, 0x07, 0x00, 0x00,
   0x00, 0x60, 0x00, 0x1e, 0x00, 0x00, 0x00, 0x40, 0x00, 0xf0, 0x07, 0x00,
   0x00, 0x40, 0x00, 0x00, 0x1e, 0x00, 0x00, 0x23, 0x00, 0x03, 0x30, 0x00,
   0x80, 0x1f, 0x00, 0x03, 0x60, 0x00, 0x40, 0x00, 0x00, 0x03, 0x60, 0x00,
   0x40, 0x00, 0x00, 0x00, 0x60, 0x00, 0x60, 0x00, 0x00, 0x00, 0x60, 0x00,
   0xe0, 0x00, 0x00, 0x00, 0x70, 0x00, 0x00, 0x20, 0x00, 0x00, 0x38, 0x00,
   0x00, 0x30, 0x00, 0x80, 0x1f, 0x00, 0x00, 0x18, 0x00, 0xe0, 0x0f, 0x00,
   0x00, 0x1c, 0x00, 0xf0, 0x03, 0x00, 0x00, 0x06, 0x00, 0xf8, 0x00, 0x00,
   0x00, 0x06, 0x7f, 0x78, 0x00, 0x00, 0x00, 0xc0, 0xff, 0x38, 0x00, 0x00,
   0x00, 0x00, 0xc0, 0x39, 0x00, 0x00, 0x00, 0x00, 0x80, 0x11, 0x00, 0x00,
   0x00, 0x00, 0x80, 0x31, 0x00, 0x00, 0x00, 0x00, 0x80, 0x31, 0x00, 0x00,
   0x00, 0x00, 0x80, 0x60, 0x00, 0x00, 0x00, 0x00, 0xc0, 0xc0, 0x00, 0x00,
   0x00, 0x00, 0x40, 0xc8, 0x00, 0x00, 0x00, 0xd0, 0x40, 0xd2, 0x00, 0x00,
   0x00, 0x18, 0x61, 0xd2, 0x00, 0x00, 0x00, 0x0c, 0xfe, 0x63, 0x00, 0x00,
   0x00, 0x04, 0xf0, 0x4f, 0x00, 0x00, 0x00, 0x06, 0xb8, 0x67, 0x00, 0x00,
   0x00, 0x02, 0x9f, 0xfd, 0x0f, 0x00, 0x00, 0xc6, 0x87, 0x7c, 0x18, 0x00,
   0x00, 0xfe, 0x80, 0xfd, 0x11, 0x00, 0x00, 0x3c, 0xfc, 0x01, 0x06, 0x00,
   0x00, 0x00, 0x0e, 0x00, 0x0f, 0x00, 0x00, 0x00, 0xfc, 0xff, 0x07, 0x00,
   0x00, 0x00, 0xe0, 0xff, 0x00, 0x00, 0x00, 0x00, 0x00, 0x00, 0x00, 0x00 };
